<?xml version="1.0" encoding="UTF-8" standalone="no"?>
<svg
   xmlns:dc="http://purl.org/dc/elements/1.1/"
   xmlns:cc="http://creativecommons.org/ns#"
   xmlns:rdf="http://www.w3.org/1999/02/22-rdf-syntax-ns#"
   xmlns:svg="http://www.w3.org/2000/svg"
   xmlns="http://www.w3.org/2000/svg"
   xmlns:sodipodi="http://sodipodi.sourceforge.net/DTD/sodipodi-0.dtd"
   xmlns:inkscape="http://www.inkscape.org/namespaces/inkscape"
   width="546.13336"
   height="546.13336"
   viewBox="0 0 512 512"
   id="svg2"
   version="1.1"
   inkscape:version="0.92.1 r15371"
   sodipodi:docname="aa.svg">
  <metadata
     id="metadata10">
    <rdf:RDF>
      <cc:Work
         rdf:about="">
        <dc:format>image/svg+xml</dc:format>
        <dc:type
           rdf:resource="http://purl.org/dc/dcmitype/StillImage" />
        <dc:title />
      </cc:Work>
    </rdf:RDF>
  </metadata>
  <defs
     id="defs8" />
  <sodipodi:namedview
     pagecolor="#ffffff"
     bordercolor="#666666"
     borderopacity="1"
     objecttolerance="10"
     gridtolerance="10"
     guidetolerance="10"
     inkscape:pageopacity="0"
     inkscape:pageshadow="2"
     inkscape:window-width="1456"
     inkscape:window-height="900"
     id="namedview6"
     showgrid="true"
     inkscape:zoom="1.2291667"
     inkscape:cx="108.56167"
     inkscape:cy="252.19703"
     inkscape:window-x="0"
     inkscape:window-y="25"
     inkscape:window-maximized="0"
     inkscape:current-layer="svg2">
    <inkscape:grid
       type="xygrid"
       id="grid3755"
       empspacing="5"
       visible="true"
       enabled="true"
       snapvisiblegridlinesonly="true"
       originx="0"
       originy="0"
       spacingx="1"
       spacingy="1" />
  </sodipodi:namedview>
  <g
     aria-label="ু"
     style="font-style:normal;font-variant:normal;font-weight:normal;font-stretch:normal;font-size:179.99998474px;line-height:1.25;letter-spacing:0px;word-spacing:0px;fill:#000000;fill-opacity:1;stroke:none;stroke-width:0.93749994"
     id="text901"
     transform="matrix(2.1828746,0,0,2.1828746,-621.13813,-548.22713)">
    <path
       d="m 457.26063,386.25863 h 10.98 q 0.18,2.7 0.18,5.4 0,2.34 -0.18,4.5 h -10.8 q 0.18,-2.16 0.18,-4.5 0,-0.9 0,-1.8 0,-0.9 -0.18,-1.8 0,-0.9 -0.18,-1.8 z m -2.16,-10.8 q -1.62,-4.68 -3.96,-9.18 l 10.08,-4.14 q 2.34,4.5 3.96,9.18 z m -10.26,-18.72 q -3.06,-3.78 -6.84,-7.02 l 7.56,-7.56 q 1.8,1.62 3.6,3.42 1.8,1.62 3.42,3.6 z m -16.37999,-13.68 q -2.16,-1.26 -4.5,-2.16 -2.16,-1.08 -4.5,-1.8 l 3.78,-9.54 q 2.34,0.9 4.68,1.8 2.33999,0.9 4.49999,1.98 z m -19.98,-6.3 q -1.08,-0.18 -2.16,-0.18 -0.9,0 -1.98,0 -1.44,0 -2.88,0.18 -1.44,0 -3.06,0.18 v -10.08 q 3.06,-0.18 6.12,-0.18 1.98,0 3.96,0.18 z m 0,109.07999 v 10.62 q -2.52,0.18 -5.04,0.18 -2.52,0 -5.04,-0.18 v -10.62 q 0.9,0 1.62,0.18 0.9,0 1.62,0 0.9,0 1.8,0 2.52,0 5.04,-0.18 z m 10.98,-2.34 q 4.68,-1.44 9.18,-3.96 l 4.13999,10.08 q -4.49999,2.34 -9.17999,3.78 z m 18.71999,-10.44 q 3.78,-3.24 7.02,-7.2 l 7.74,7.92 q -1.62,1.8 -3.42,3.6 -1.62,1.8 -3.6,3.42 z m 13.32,-16.73999 q 2.34,-4.5 3.78,-9.18 l 10.08,4.14 q -1.44,4.68 -3.6,9.17999 z m -102.05999,-20.16 h -10.8 q -0.18,-2.52 -0.18,-5.04 0,-2.52 0.18,-4.86 h 10.8 q -0.18,2.52 -0.18,4.86 0,2.52 0.18,5.04 z m 2.52,10.8 q 1.44,4.68 3.78,9 l -10.44,4.49999 q -0.72,-1.62 -1.44,-3.06 -0.72,-1.43999 -1.26,-3.05999 -0.54,-1.62 -1.08,-3.24 z m 10.26,18.53999 q 3.06,3.78 6.84,7.02 l -8.1,8.28 q -3.78,-3.24 -7.02,-7.02 z m 16.2,13.68 q 4.32,2.52 9,4.14 l -4.14,10.08 q -2.34,-0.72 -4.68,-1.62 -2.16,-0.9 -4.5,-2.16 z m 9.18,-99.71999 q -1.08,0.54 -2.34,1.08 -1.08,0.36 -2.34,0.9 -1.08,0.54 -2.16,1.08 -1.08,0.54 -2.16,1.08 l -4.14,-10.08 q 4.5,-2.16 9.18,-3.6 z m -18.18,10.62 q -3.78,3.24 -7.02,7.02 l -8.1,-8.1 q 1.62,-1.8 3.42,-3.42 1.8,-1.8 3.6,-3.42 z m -13.5,16.38 q -0.54,1.08 -1.08,2.16 -0.54,1.08 -1.08,2.34 -0.54,1.08 -1.08,2.34 -0.36,1.08 -0.72,2.16 l -10.44,-4.14 q 0.54,-1.26 0.9,-2.34 0.36,-1.26 0.9,-2.34 0.54,-1.26 1.08,-2.34 0.54,-1.08 1.08,-2.16 z"
       style="stroke-width:0.93749994"
       id="path910"
       inkscape:connector-curvature="0" />
  </g>
  <g
     aria-label="á"
     style="font-style:normal;font-variant:normal;font-weight:normal;font-stretch:normal;font-size:179.99998474px;line-height:1.25;letter-spacing:0px;word-spacing:0px;fill:#000000;fill-opacity:1;stroke:none;stroke-width:0.93749994"
     id="text905"
     transform="matrix(2.4066193,0,0,2.4066192,-349.78721,-87.21039)">
    <path
       d="m 275.64944,62.628043 c 0,2.512679 -1.0993,4.672015 -3.29789,6.477995 L 235.48582,99.25819 231.12791,95.135829 260.3378,57.210077 c 1.72748,-2.277118 3.84754,-3.415673 6.36023,-3.415673 2.35563,0 4.43644,0.902993 6.24244,2.708986 1.80597,1.727464 2.70897,3.769019 2.70897,6.124653 z"
       style="stroke-width:1.25633955"
       id="path907"
       inkscape:connector-curvature="0"
       sodipodi:nodetypes="sccccscs" />
  </g>
</svg>
