<?xml version="1.0" encoding="UTF-8" standalone="no"?>
<svg
   xmlns:dc="http://purl.org/dc/elements/1.1/"
   xmlns:cc="http://creativecommons.org/ns#"
   xmlns:rdf="http://www.w3.org/1999/02/22-rdf-syntax-ns#"
   xmlns:svg="http://www.w3.org/2000/svg"
   xmlns="http://www.w3.org/2000/svg"
   xmlns:sodipodi="http://sodipodi.sourceforge.net/DTD/sodipodi-0.dtd"
   xmlns:inkscape="http://www.inkscape.org/namespaces/inkscape"
   width="546.13336"
   height="546.13336"
   viewBox="0 0 512 512"
   id="svg2"
   version="1.1"
   inkscape:version="0.92.4 (5da689c313, 2019-01-14)"
   sodipodi:docname="bold.svg">
  <metadata
     id="metadata10">
    <rdf:RDF>
      <cc:Work
         rdf:about="">
        <dc:format>image/svg+xml</dc:format>
        <dc:type
           rdf:resource="http://purl.org/dc/dcmitype/StillImage" />
        <dc:title></dc:title>
      </cc:Work>
    </rdf:RDF>
  </metadata>
  <defs
     id="defs8" />
  <sodipodi:namedview
     pagecolor="#ffffff"
     bordercolor="#666666"
     borderopacity="1"
     objecttolerance="10"
     gridtolerance="10"
     guidetolerance="10"
     inkscape:pageopacity="0"
     inkscape:pageshadow="2"
     inkscape:window-width="1738"
     inkscape:window-height="900"
     id="namedview6"
     showgrid="true"
     inkscape:zoom="1.2291667"
     inkscape:cx="208.32793"
     inkscape:cy="263.99714"
     inkscape:window-x="0"
     inkscape:window-y="33"
     inkscape:window-maximized="0"
     inkscape:current-layer="svg2">
    <inkscape:grid
       type="xygrid"
       id="grid3755"
       empspacing="5"
       visible="true"
       enabled="true"
       snapvisiblegridlinesonly="true"
       originx="0"
       originy="0"
       spacingx="1"
       spacingy="1" />
  </sodipodi:namedview>
  <text
     xml:space="preserve"
     style="font-style:normal;font-variant:normal;font-weight:normal;font-stretch:normal;font-size:179.99998474px;line-height:1.25;letter-spacing:0px;word-spacing:0px;fill:#000000;fill-opacity:1;stroke:none;stroke-width:0.93749994;"
     x="59.999996"
     y="372"
     id="text4505"><tspan
       sodipodi:role="line"
       id="tspan4503"
       x="59.999996"
       y="525.96381"
       style="stroke-width:0.93749994;font-weight:normal;font-style:normal;font-stretch:normal;font-variant:normal;" /></text>
  <g
     aria-label="B"
     style="font-style:normal;font-variant:normal;font-weight:bold;font-stretch:normal;font-size:179.99998474px;line-height:1.25;letter-spacing:0px;word-spacing:0px;fill:#000000;fill-opacity:1;stroke:none;stroke-width:0.93749994"
     id="text821"
     transform="matrix(2.8531168,0,0,2.8531168,-288.07208,-631.85031)">
    <path
       d="m 210.06835,308.80665 q 16.96289,3.95507 23.81836,9.58007 9.84375,7.99805 9.84375,20.74219 0,13.44726 -10.81055,22.23633 Q 219.64843,372 194.33593,372 H 133.7793 v -3.25195 q 8.26171,0 11.1621,-1.49414 2.98829,-1.58203 4.13086,-4.04297 1.23047,-2.46094 1.23047,-12.12891 v -77.34374 q 0,-9.66797 -1.23047,-12.12891 -1.14257,-2.54882 -4.13086,-4.04296 -2.98828,-1.49414 -11.1621,-1.49414 v -3.25196 h 57.1289 q 20.47851,0 29.0039,3.69141 8.52539,3.60351 13.44727,10.89844 4.92187,7.20703 4.92187,15.38085 0,8.61328 -6.24023,15.38086 -6.24024,6.67969 -21.97266,10.63477 z m -31.99218,-2.37305 q 12.48047,0 18.36914,-2.8125 5.97656,-2.8125 9.14062,-7.91016 3.16406,-5.09765 3.16406,-13.00781 0,-7.91015 -3.16406,-12.91992 -3.07617,-5.09765 -8.87695,-7.73437 -5.80078,-2.63672 -18.63281,-2.54883 z m 0,6.85547 v 38.23242 l -0.0879,4.39453 q 0,4.74609 2.37304,7.20703 2.46094,2.37304 7.20703,2.37304 7.03125,0 12.91993,-3.07617 5.97656,-3.16406 9.14062,-9.05273 3.16406,-5.97656 3.16406,-13.27148 0,-8.34961 -3.86719,-14.94141 -3.86718,-6.67969 -10.63476,-9.3164 -6.76758,-2.63672 -20.21484,-2.54883 z"
       style="font-style:normal;font-variant:normal;font-weight:bold;font-stretch:normal;stroke-width:0.93749994"
       id="path823"
       inkscape:connector-curvature="0" />
  </g>
</svg>
