<?xml version="1.0" encoding="UTF-8" standalone="no"?>
<svg
   xmlns:dc="http://purl.org/dc/elements/1.1/"
   xmlns:cc="http://creativecommons.org/ns#"
   xmlns:rdf="http://www.w3.org/1999/02/22-rdf-syntax-ns#"
   xmlns:svg="http://www.w3.org/2000/svg"
   xmlns="http://www.w3.org/2000/svg"
   xmlns:sodipodi="http://sodipodi.sourceforge.net/DTD/sodipodi-0.dtd"
   xmlns:inkscape="http://www.inkscape.org/namespaces/inkscape"
   width="546.13336"
   height="546.13336"
   viewBox="0 0 512 512"
   id="svg2"
   version="1.1"
   inkscape:version="0.92.1 r15371"
   sodipodi:docname="lapki1.svg">
  <metadata
     id="metadata10">
    <rdf:RDF>
      <cc:Work
         rdf:about="">
        <dc:format>image/svg+xml</dc:format>
        <dc:type
           rdf:resource="http://purl.org/dc/dcmitype/StillImage" />
        <dc:title></dc:title>
      </cc:Work>
    </rdf:RDF>
  </metadata>
  <defs
     id="defs8" />
  <sodipodi:namedview
     pagecolor="#ffffff"
     bordercolor="#666666"
     borderopacity="1"
     objecttolerance="10"
     gridtolerance="10"
     guidetolerance="10"
     inkscape:pageopacity="0"
     inkscape:pageshadow="2"
     inkscape:window-width="1738"
     inkscape:window-height="900"
     id="namedview6"
     showgrid="true"
     inkscape:zoom="1.2291667"
     inkscape:cx="322.48632"
     inkscape:cy="263.76633"
     inkscape:window-x="0"
     inkscape:window-y="25"
     inkscape:window-maximized="0"
     inkscape:current-layer="svg2">
    <inkscape:grid
       type="xygrid"
       id="grid3755"
       empspacing="5"
       visible="true"
       enabled="true"
       snapvisiblegridlinesonly="true"
       originx="0"
       originy="0"
       spacingx="1"
       spacingy="1" />
  </sodipodi:namedview>
  <text
     xml:space="preserve"
     style="font-style:normal;font-variant:normal;font-weight:normal;font-stretch:normal;font-size:179.99998474px;line-height:1.25;letter-spacing:0px;word-spacing:0px;fill:#000000;fill-opacity:1;stroke:none;stroke-width:0.93749994;"
     x="59.999996"
     y="372"
     id="text4505"><tspan
       sodipodi:role="line"
       id="tspan4503"
       x="59.999996"
       y="525.96381"
       style="stroke-width:0.93749994;font-weight:normal;font-style:normal;font-stretch:normal;font-variant:normal;" /></text>
  <g
     aria-label="„"
     style="font-style:normal;font-variant:normal;font-weight:normal;font-stretch:normal;font-size:179.99998474px;line-height:1.25;letter-spacing:0px;word-spacing:0px;fill:#000000;fill-opacity:1;stroke:none;stroke-width:0.93749994"
     id="text4533"
     transform="matrix(4.1772482,0,0,4.1772482,-329.32024,-1119.0758)">
    <path
       d="m 164.07226,341.82422 q 0,18.01758 -12.04101,30.32226 -2.46094,2.54883 -3.42774,2.54883 -1.66992,0 -1.66992,-1.8457 0,-0.70313 1.14258,-1.9336 12.21679,-13.27148 12.21679,-29.09179 0,-1.93359 -0.43945,-2.54883 Q 157.56835,342 153.26171,342 q -3.95507,0 -6.59179,-2.46094 -2.54883,-2.54883 -2.54883,-6.5039 0,-3.86719 2.54883,-6.41602 2.63672,-2.54883 6.59179,-2.54883 10.81055,0 10.81055,17.75391 z m -32.95898,0 q 0,18.01758 -12.04102,30.32226 -2.46093,2.54883 -3.42773,2.54883 -1.66992,0 -1.66992,-1.8457 0,-0.70313 1.14258,-1.9336 12.30468,-13.27148 12.30468,-29.09179 0,-1.93359 -0.43945,-2.54883 Q 124.60937,342 120.30273,342 q -3.95508,0 -6.5039,-2.46094 -2.54883,-2.54883 -2.54883,-6.5039 0,-3.86719 2.54883,-6.41602 2.63672,-2.54883 6.5039,-2.54883 10.81055,0 10.81055,17.75391 z"
       style="stroke-width:0.93749994"
       id="path4535"
       inkscape:connector-curvature="0" />
  </g>
</svg>
