<?xml version="1.0" encoding="UTF-8" standalone="no"?>
<svg
   xmlns:dc="http://purl.org/dc/elements/1.1/"
   xmlns:cc="http://creativecommons.org/ns#"
   xmlns:rdf="http://www.w3.org/1999/02/22-rdf-syntax-ns#"
   xmlns:svg="http://www.w3.org/2000/svg"
   xmlns="http://www.w3.org/2000/svg"
   xmlns:sodipodi="http://sodipodi.sourceforge.net/DTD/sodipodi-0.dtd"
   xmlns:inkscape="http://www.inkscape.org/namespaces/inkscape"
   width="546.13336"
   height="546.13336"
   viewBox="0 0 512 512"
   id="svg2"
   version="1.1"
   inkscape:version="0.92.1 r15371"
   sodipodi:docname="lapki2.svg">
  <metadata
     id="metadata10">
    <rdf:RDF>
      <cc:Work
         rdf:about="">
        <dc:format>image/svg+xml</dc:format>
        <dc:type
           rdf:resource="http://purl.org/dc/dcmitype/StillImage" />
        <dc:title></dc:title>
      </cc:Work>
    </rdf:RDF>
  </metadata>
  <defs
     id="defs8" />
  <sodipodi:namedview
     pagecolor="#ffffff"
     bordercolor="#666666"
     borderopacity="1"
     objecttolerance="10"
     gridtolerance="10"
     guidetolerance="10"
     inkscape:pageopacity="0"
     inkscape:pageshadow="2"
     inkscape:window-width="1738"
     inkscape:window-height="900"
     id="namedview6"
     showgrid="true"
     inkscape:zoom="1.2291667"
     inkscape:cx="322.48632"
     inkscape:cy="263.76633"
     inkscape:window-x="0"
     inkscape:window-y="25"
     inkscape:window-maximized="0"
     inkscape:current-layer="svg2">
    <inkscape:grid
       type="xygrid"
       id="grid3755"
       empspacing="5"
       visible="true"
       enabled="true"
       snapvisiblegridlinesonly="true"
       originx="0"
       originy="0"
       spacingx="1"
       spacingy="1" />
  </sodipodi:namedview>
  <text
     xml:space="preserve"
     style="font-style:normal;font-variant:normal;font-weight:normal;font-stretch:normal;font-size:179.99998474px;line-height:1.25;letter-spacing:0px;word-spacing:0px;fill:#000000;fill-opacity:1;stroke:none;stroke-width:0.93749994;"
     x="59.999996"
     y="372"
     id="text4505"><tspan
       sodipodi:role="line"
       id="tspan4503"
       x="59.999996"
       y="525.96381"
       style="stroke-width:0.93749994;-inkscape-font-specification:'Times New Roman, ';font-stretch:normal;font-variant:normal;" /></text>
  <g
     aria-label="“"
     style="font-style:normal;font-variant:normal;font-weight:normal;font-stretch:normal;font-size:179.99998474px;line-height:1.25;letter-spacing:0px;word-spacing:0px;fill:#000000;fill-opacity:1;stroke:none;stroke-width:0.93749994"
     id="text4578"
     transform="matrix(4.1772482,0,0,4.1772482,-419.55701,-609.87566)">
    <path
       d="m 189.01367,206.32618 q 0,3.86719 -2.63672,6.41601 -2.54883,2.46094 -6.41602,2.46094 -5.97656,0 -8.96484,-6.24023 -2.28516,-4.83399 -2.28516,-11.60156 0,-17.66602 12.48047,-30.32227 2.46094,-2.46094 3.33984,-2.46094 1.75782,0 1.75782,1.84571 0,0.70312 -2.02149,2.8125 -11.86523,11.86523 -11.86523,29.17968 0,1.31836 0.35156,2.10938 0.17578,-0.17578 0.52734,-0.52735 2.9004,-2.72461 6.67969,-2.72461 3.95508,0 6.50391,2.54883 2.54883,2.54883 2.54883,6.50391 z m -32.8711,0 q 0,3.86719 -2.54882,6.41601 -2.54883,2.46094 -6.41602,2.46094 -6.06445,0 -9.05273,-6.24023 -2.37305,-4.83399 -2.37305,-11.60156 0,-17.8418 12.56836,-30.32227 2.46094,-2.46094 3.42773,-2.46094 1.66993,0 1.66993,1.84571 0,0.79101 -2.02149,2.8125 -11.95312,11.95312 -11.95312,29.17968 0,1.31836 0.35156,2.10938 0.0879,0 0.61523,-0.52735 3.07618,-2.72461 6.76758,-2.72461 3.86719,0 6.41602,2.54883 2.54882,2.54883 2.54882,6.50391 z"
       style="stroke-width:0.93749994"
       id="path4580"
       inkscape:connector-curvature="0" />
  </g>
</svg>
