<?xml version="1.0" encoding="UTF-8" standalone="no"?>
<svg
   xmlns:dc="http://purl.org/dc/elements/1.1/"
   xmlns:cc="http://creativecommons.org/ns#"
   xmlns:rdf="http://www.w3.org/1999/02/22-rdf-syntax-ns#"
   xmlns:svg="http://www.w3.org/2000/svg"
   xmlns="http://www.w3.org/2000/svg"
   xmlns:sodipodi="http://sodipodi.sourceforge.net/DTD/sodipodi-0.dtd"
   xmlns:inkscape="http://www.inkscape.org/namespaces/inkscape"
   width="546.13336"
   height="546.13336"
   viewBox="0 0 512 512"
   id="svg2"
   version="1.1"
   inkscape:version="0.92.4 (5da689c313, 2019-01-14)"
   sodipodi:docname="lira.svg">
  <metadata
     id="metadata10">
    <rdf:RDF>
      <cc:Work
         rdf:about="">
        <dc:format>image/svg+xml</dc:format>
        <dc:type
           rdf:resource="http://purl.org/dc/dcmitype/StillImage" />
        <dc:title />
      </cc:Work>
    </rdf:RDF>
  </metadata>
  <defs
     id="defs8" />
  <sodipodi:namedview
     pagecolor="#ffffff"
     bordercolor="#666666"
     borderopacity="1"
     objecttolerance="10"
     gridtolerance="10"
     guidetolerance="10"
     inkscape:pageopacity="0"
     inkscape:pageshadow="2"
     inkscape:window-width="1456"
     inkscape:window-height="900"
     id="namedview6"
     showgrid="true"
     inkscape:zoom="1.2291667"
     inkscape:cx="67.619493"
     inkscape:cy="252.19703"
     inkscape:window-x="0"
     inkscape:window-y="27"
     inkscape:window-maximized="0"
     inkscape:current-layer="svg2">
    <inkscape:grid
       type="xygrid"
       id="grid3755"
       empspacing="5"
       visible="true"
       enabled="true"
       snapvisiblegridlinesonly="true"
       originx="0"
       originy="0"
       spacingx="1"
       spacingy="1" />
  </sodipodi:namedview>
  <g
     aria-label="₺"
     style="font-style:normal;font-variant:normal;font-weight:normal;font-stretch:normal;font-size:179.99998474px;line-height:1.25;letter-spacing:0px;word-spacing:0px;fill:#131313;fill-opacity:1;stroke:none;stroke-width:0.93749994"
     id="text817"
     transform="matrix(3.1384285,0,0,3.1384285,-518.646,-476.64841)">
    <path
       d="m 288.68163,253.15235 q 0,8.34961 -2.02148,15.46875 -2.02149,7.11914 -6.5918,12.30468 -4.57031,5.18555 -11.95312,8.17383 Q 260.82031,292 250.18554,292 h -47.98827 v -3.25195 h 4.48242 q 7.55859,0 10.72265,-4.83399 2.02149,-2.98828 2.02149,-13.00781 v -40.42968 l -17.22656,5.71289 v -7.20703 l 17.22656,-5.71289 v -7.03125 l -17.22656,5.71289 v -7.20703 l 17.22656,-5.71289 v -15.0293 q 0,-9.22851 -1.14258,-12.04101 -0.9668,-2.37305 -3.60352,-3.7793 -3.86718,-2.10937 -8.08593,-2.10937 h -4.21875 v -3.25196 h 51.06445 v 3.25196 h -4.30664 q -4.21875,0 -8.17383,2.10937 -3.33985,1.93359 -4.30664,7.11914 -0.35156,1.66992 -0.35156,8.70117 v 9.4043 l 23.81835,-7.99805 v 7.20703 l -23.81835,7.99805 v 7.03125 l 23.81835,-7.99805 v 7.20703 l -23.81835,7.99805 v 45.96679 q 0,8.87695 4.13085,12.65625 4.21875,3.69141 11.60157,3.69141 6.94335,0 12.48046,-1.9336 5.625,-2.02148 9.49219,-5.88867 3.95508,-3.86719 5.97656,-9.49219 2.10938,-5.71289 2.10938,-13.0957 0,-4.30664 -1.66992,-6.85547 -1.66993,-2.63671 -3.69141,-4.6582 -1.93359,-2.02148 -3.60352,-4.13086 -1.66992,-2.10937 -1.66992,-5.36133 0,-3.51562 1.9336,-5.88867 1.93359,-2.37304 5.00976,-2.37304 2.37305,0 4.04297,1.31836 1.66992,1.31836 2.8125,3.51562 1.14258,2.19727 1.75781,5.00977 0.70313,2.72461 1.05469,5.5371 0.43945,2.8125 0.52734,5.53711 0.0879,2.72461 0.0879,4.7461 z"
       style="stroke-width:0.93749994;fill:#131313;fill-opacity:1"
       id="path819"
       inkscape:connector-curvature="0" />
  </g>
</svg>
