<?xml version="1.0" encoding="UTF-8" standalone="no"?>
<svg
   xmlns:dc="http://purl.org/dc/elements/1.1/"
   xmlns:cc="http://creativecommons.org/ns#"
   xmlns:rdf="http://www.w3.org/1999/02/22-rdf-syntax-ns#"
   xmlns:svg="http://www.w3.org/2000/svg"
   xmlns="http://www.w3.org/2000/svg"
   xmlns:sodipodi="http://sodipodi.sourceforge.net/DTD/sodipodi-0.dtd"
   xmlns:inkscape="http://www.inkscape.org/namespaces/inkscape"
   width="546.13336"
   height="546.13336"
   viewBox="0 0 512 512"
   id="svg2"
   version="1.1"
   inkscape:version="0.92.4 (5da689c313, 2019-01-14)"
   sodipodi:docname="rupee.svg">
  <metadata
     id="metadata10">
    <rdf:RDF>
      <cc:Work
         rdf:about="">
        <dc:format>image/svg+xml</dc:format>
        <dc:type
           rdf:resource="http://purl.org/dc/dcmitype/StillImage" />
        <dc:title />
      </cc:Work>
    </rdf:RDF>
  </metadata>
  <defs
     id="defs8" />
  <sodipodi:namedview
     pagecolor="#ffffff"
     bordercolor="#666666"
     borderopacity="1"
     objecttolerance="10"
     gridtolerance="10"
     guidetolerance="10"
     inkscape:pageopacity="0"
     inkscape:pageshadow="2"
     inkscape:window-width="1456"
     inkscape:window-height="900"
     id="namedview6"
     showgrid="true"
     inkscape:zoom="1.2291667"
     inkscape:cx="89.109353"
     inkscape:cy="266.8411"
     inkscape:window-x="0"
     inkscape:window-y="27"
     inkscape:window-maximized="0"
     inkscape:current-layer="svg2">
    <inkscape:grid
       type="xygrid"
       id="grid3755"
       empspacing="5"
       visible="true"
       enabled="true"
       snapvisiblegridlinesonly="true"
       originx="0"
       originy="0"
       spacingx="1"
       spacingy="1" />
  </sodipodi:namedview>
  <g
     aria-label="Rs"
     style="font-style:normal;font-variant:normal;font-weight:normal;font-stretch:normal;font-size:179.99998474px;line-height:1.25;letter-spacing:0px;word-spacing:0px;fill:#131313;fill-opacity:1;stroke:none;stroke-width:0.93749994"
     id="text817"
     transform="matrix(2.3579477,0,0,2.3579477,-388.10374,-295.54411)">
    <path
       d="m 301.64061,292 h -31.8164 l -40.34179,-55.72265 q -4.48242,0.17578 -7.29492,0.17578 -1.14258,0 -2.46094,0 -1.31836,-0.0879 -2.72461,-0.17578 v 34.6289 q 0,11.25 2.46094,13.97461 3.33984,3.86719 10.01953,3.86719 h 4.6582 V 292 h -51.06445 v -3.25195 h 4.48242 q 7.5586,0 10.81055,-4.92188 1.8457,-2.72461 1.8457,-12.91992 v -76.99218 q 0,-11.25 -2.46094,-13.97461 -3.42773,-3.86718 -10.19531,-3.86718 h -4.48242 v -3.25196 h 43.41797 q 18.98437,0 27.94921,2.8125 9.05274,2.72461 15.29297,10.19531 6.32812,7.38282 6.32812,17.66602 0,10.98633 -7.20703,19.07226 -7.11914,8.08594 -22.14843,11.42578 l 24.60937,34.18945 q 8.4375,11.77735 14.50195,15.64453 6.06446,3.86719 15.82031,4.92188 z m -84.63866,-61.25976 q 1.66992,0 2.90039,0.0879 1.23047,0 2.02148,0 17.05078,0 25.66406,-7.38281 8.70118,-7.38281 8.70118,-18.80859 0,-11.16211 -7.03125,-18.10547 -6.94336,-7.03125 -18.45703,-7.03125 -5.09766,0 -13.79883,1.66992 z"
       style="stroke-width:0.93749994;fill:#131313;fill-opacity:1"
       id="path819"
       inkscape:connector-curvature="0" />
    <path
       d="m 357.89061,209.11915 v 27.42187 h -2.90039 q -3.33984,-12.91992 -8.61328,-17.57812 -5.18554,-4.65821 -13.27148,-4.65821 -6.15234,0 -9.93164,3.25196 -3.7793,3.25195 -3.7793,7.20703 0,4.92187 2.8125,8.4375 2.72461,3.60351 11.07422,7.64648 l 12.83203,6.24023 q 17.8418,8.70118 17.8418,22.93946 0,10.98632 -8.34961,17.7539 -8.26172,6.67969 -18.54492,6.67969 -7.38282,0 -16.875,-2.63672 -2.90039,-0.87891 -4.7461,-0.87891 -2.02148,0 -3.16406,2.28516 h -2.90039 v -28.74023 h 2.90039 q 2.46094,12.30468 9.4043,18.54492 6.94336,6.24023 15.55664,6.24023 6.06445,0 9.84375,-3.51562 3.86718,-3.60352 3.86718,-8.61328 0,-6.06446 -4.30664,-10.19532 -4.21875,-4.13086 -16.96289,-10.45898 -12.74414,-6.32812 -16.69921,-11.42578 -3.95508,-5.00976 -3.95508,-12.65625 0,-9.93164 6.76758,-16.61133 6.85546,-6.67968 17.66601,-6.67968 4.74609,0 11.51367,2.02148 4.48242,1.31836 5.97656,1.31836 1.40625,0 2.19727,-0.61523 0.79101,-0.61524 1.8457,-2.72461 z"
       style="stroke-width:0.93749994;fill:#131313;fill-opacity:1"
       id="path821"
       inkscape:connector-curvature="0" />
  </g>
</svg>
