<?xml version="1.0" encoding="UTF-8" standalone="no"?>
<svg
   xmlns:dc="http://purl.org/dc/elements/1.1/"
   xmlns:cc="http://creativecommons.org/ns#"
   xmlns:rdf="http://www.w3.org/1999/02/22-rdf-syntax-ns#"
   xmlns:svg="http://www.w3.org/2000/svg"
   xmlns="http://www.w3.org/2000/svg"
   xmlns:sodipodi="http://sodipodi.sourceforge.net/DTD/sodipodi-0.dtd"
   xmlns:inkscape="http://www.inkscape.org/namespaces/inkscape"
   width="546.13336"
   height="546.13336"
   viewBox="0 0 512 512"
   id="svg2"
   version="1.1"
   inkscape:version="0.92.1 r15371"
   sodipodi:docname="tm.svg">
  <metadata
     id="metadata10">
    <rdf:RDF>
      <cc:Work
         rdf:about="">
        <dc:format>image/svg+xml</dc:format>
        <dc:type
           rdf:resource="http://purl.org/dc/dcmitype/StillImage" />
        <dc:title></dc:title>
      </cc:Work>
    </rdf:RDF>
  </metadata>
  <defs
     id="defs8" />
  <sodipodi:namedview
     pagecolor="#ffffff"
     bordercolor="#666666"
     borderopacity="1"
     objecttolerance="10"
     gridtolerance="10"
     guidetolerance="10"
     inkscape:pageopacity="0"
     inkscape:pageshadow="2"
     inkscape:window-width="1738"
     inkscape:window-height="900"
     id="namedview6"
     showgrid="true"
     inkscape:zoom="1.2291667"
     inkscape:cx="292.01929"
     inkscape:cy="276.24859"
     inkscape:window-x="0"
     inkscape:window-y="25"
     inkscape:window-maximized="0"
     inkscape:current-layer="svg2">
    <inkscape:grid
       type="xygrid"
       id="grid3755"
       empspacing="5"
       visible="true"
       enabled="true"
       snapvisiblegridlinesonly="true"
       originx="0"
       originy="0"
       spacingx="1"
       spacingy="1" />
  </sodipodi:namedview>
  <text
     xml:space="preserve"
     style="font-style:normal;font-variant:normal;font-weight:normal;font-stretch:normal;font-size:179.99998474px;line-height:1.25;letter-spacing:0px;word-spacing:0px;fill:#000000;fill-opacity:1;stroke:none;stroke-width:0.93749994;"
     x="59.999996"
     y="372"
     id="text4505"><tspan
       sodipodi:role="line"
       id="tspan4503"
       x="59.999996"
       y="525.96381"
       style="stroke-width:0.93749994;font-weight:normal;font-style:normal;font-stretch:normal;font-variant:normal;" /></text>
  <g
     aria-label="™"
     style="font-style:normal;font-variant:normal;font-weight:normal;font-stretch:normal;font-size:179.99998474px;line-height:1.25;letter-spacing:0px;word-spacing:0px;fill:#000000;fill-opacity:1;stroke:none;stroke-width:0.93749994"
     id="text4507"
     transform="matrix(1.9487171,0,0,1.9487171,-129.0594,-344.95207)">
    <path
       d="m 300.23436,301.19922 q -6.32813,-0.43945 -8.70117,-0.43945 h -23.37891 q -2.02148,0 -8.34961,0.43945 v -5.88867 q 10.19531,0 11.68946,-0.52734 2.02148,-0.70313 2.02148,-3.07617 v -62.05078 l -30.67383,68.64257 q -1.23046,2.8125 -3.42773,2.8125 -2.19727,0 -3.60352,-3.16406 l -30.23437,-67.4121 v 57.65624 q 0,7.20703 13.71094,7.11914 v 5.80078 q -14.0625,-0.35156 -16.61133,-0.35156 -2.46094,0 -16.69922,0.35156 v -5.80078 q 13.71094,0.0879 13.71094,-7.11914 V 229.3047 q 0,-1.05469 -0.35156,-1.84571 -0.70313,-1.66992 -13.35938,-1.58203 v -5.88867 h 24.16992 q 3.7793,0 5.18555,3.16406 l 27.86133,62.40234 28.0371,-62.7539 q 1.23047,-2.8125 4.30664,-2.8125 h 24.69727 v 5.88867 q -1.05469,0 -3.33985,-0.0879 -2.28515,-0.0879 -3.51562,-0.0879 -6.85547,0 -6.85547,3.95508 v 62.13867 q 0,1.14258 0.43945,2.02148 0.79102,1.58203 13.27149,1.49414 z M 183.25195,248.20118 h -5.53711 q -1.49414,-15.99609 -6.32813,-19.51172 -3.86719,-2.90039 -20.91797,-2.90039 -4.6582,0 -4.6582,2.72461 v 62.92968 q 0,1.23047 0.52735,2.19727 0.96679,1.93359 18.89648,1.66992 v 5.88867 q -7.03125,-0.43945 -10.81055,-0.43945 h -31.11328 q -3.86718,0 -10.89843,0.43945 v -5.88867 q 0.8789,0 3.33984,0.0879 2.10938,0 3.33984,0 11.33789,0 12.30469,-1.75781 0.35156,-0.70312 0.35156,-2.19727 V 228.4258 q 0,-2.63672 -5.27343,-2.63672 -16.52344,0 -20.47852,3.16407 -4.57031,3.60351 -6.06445,19.24804 H 94.482421 L 97.11914,219.9883 h 83.49609 z"
       style="stroke-width:0.93749994"
       id="path4509"
       inkscape:connector-curvature="0" />
  </g>
</svg>
