<?xml version="1.0" encoding="UTF-8" standalone="no"?>
<svg
   xmlns:dc="http://purl.org/dc/elements/1.1/"
   xmlns:cc="http://creativecommons.org/ns#"
   xmlns:rdf="http://www.w3.org/1999/02/22-rdf-syntax-ns#"
   xmlns:svg="http://www.w3.org/2000/svg"
   xmlns="http://www.w3.org/2000/svg"
   xmlns:sodipodi="http://sodipodi.sourceforge.net/DTD/sodipodi-0.dtd"
   xmlns:inkscape="http://www.inkscape.org/namespaces/inkscape"
   width="546.13336"
   height="546.13336"
   viewBox="0 0 512 512"
   id="svg2"
   version="1.1"
   inkscape:version="0.92.4 (5da689c313, 2019-01-14)"
   sodipodi:docname="underline.svg">
  <metadata
     id="metadata10">
    <rdf:RDF>
      <cc:Work
         rdf:about="">
        <dc:format>image/svg+xml</dc:format>
        <dc:type
           rdf:resource="http://purl.org/dc/dcmitype/StillImage" />
        <dc:title />
      </cc:Work>
    </rdf:RDF>
  </metadata>
  <defs
     id="defs8" />
  <sodipodi:namedview
     pagecolor="#ffffff"
     bordercolor="#666666"
     borderopacity="1"
     objecttolerance="10"
     gridtolerance="10"
     guidetolerance="10"
     inkscape:pageopacity="0"
     inkscape:pageshadow="2"
     inkscape:window-width="1738"
     inkscape:window-height="900"
     id="namedview6"
     showgrid="true"
     inkscape:zoom="1.2291667"
     inkscape:cx="9.0059015"
     inkscape:cy="263.99714"
     inkscape:window-x="0"
     inkscape:window-y="33"
     inkscape:window-maximized="0"
     inkscape:current-layer="svg2">
    <inkscape:grid
       type="xygrid"
       id="grid3755"
       empspacing="5"
       visible="true"
       enabled="true"
       snapvisiblegridlinesonly="true"
       originx="0"
       originy="0"
       spacingx="1"
       spacingy="1" />
  </sodipodi:namedview>
  <text
     xml:space="preserve"
     style="font-style:normal;font-variant:normal;font-weight:normal;font-stretch:normal;font-size:179.99998474px;line-height:1.25;letter-spacing:0px;word-spacing:0px;fill:#000000;fill-opacity:1;stroke:none;stroke-width:0.93749994;"
     x="59.999996"
     y="372"
     id="text4505"><tspan
       sodipodi:role="line"
       id="tspan4503"
       x="59.999996"
       y="525.96381"
       style="stroke-width:0.93749994;font-weight:normal;font-style:normal;font-stretch:normal;font-variant:normal;" /></text>
  <g
     aria-label="U"
     style="font-style:normal;font-variant:normal;font-weight:normal;font-stretch:normal;font-size:179.99998474px;line-height:1.25;letter-spacing:0px;word-spacing:0px;fill:#000000;fill-opacity:1;stroke:none;stroke-width:0.93749994"
     id="text873"
     transform="matrix(2.5937425,0,0,2.5937425,-227.34461,-615.62566)">
    <path
       d="m 205.86914,276.07228 v -3.25196 h 42.1875 v 3.25196 h -4.48242 q -7.03125,0 -10.81055,5.88867 -1.8457,2.72461 -1.8457,12.65625 v 48.33984 q 0,17.92968 -3.60352,27.86132 -3.51562,9.84375 -13.97461,16.96289 -10.37109,7.03125 -28.30078,7.03125 -19.51171,0 -29.61913,-6.76758 -10.10742,-6.76758 -14.32617,-18.19336 -2.8125,-7.82226 -2.8125,-29.35546 v -46.58203 q 0,-10.98633 -3.07618,-14.41406 -2.98828,-3.42773 -9.75585,-3.42773 h -4.48243 v -3.25196 h 51.50391 v 3.25196 h -4.57032 q -7.38281,0 -10.54687,4.6582 -2.19727,3.16406 -2.19727,13.18359 v 51.94336 q 0,6.94335 1.23047,15.9082 1.31836,8.96484 4.65821,13.97461 3.33984,5.00976 9.58007,8.26171 6.32813,3.25196 15.46875,3.25196 11.68945,0 20.91797,-5.09766 9.22851,-5.09765 12.56836,-13.00781 3.42773,-7.99805 3.42773,-26.98242 v -48.25195 q 0,-11.16211 -2.46094,-13.97461 -3.42773,-3.86718 -10.19531,-3.86718 z"
       style="stroke-width:0.93749994"
       id="path875"
       inkscape:connector-curvature="0" />
  </g>
  <path
     style="fill:none;stroke:#000000;stroke-width:22.50000026;stroke-linecap:butt;stroke-linejoin:miter;stroke-miterlimit:4;stroke-dasharray:none;stroke-opacity:1"
     d="M 90,432 H 410"
     id="path880"
     inkscape:connector-curvature="0" />
</svg>
